PathFileType	4	(X/Y/Z)	C:/Users/beibeiliu/ov580/test_trc/User3\sequence.11_training_dense_left.trc
DataRate	CameraRate	NumFrames	NumMarkers	Units	OrigDataRate	OrigDataStartFrame	OrigNumFrames
120	120	19	19	mm	120	110	137
Frame#	Time	ThumbCMC			ThumbMCP			ThumbIP			ThumbTip			IndexMCP			IndexPIP			IndexTip			MiddleMCP			MiddlePIP			MiddleTip			RingMCP			RingPIP			RingTip			PinkyMCP			PinkyPIP			PinkyTip			BackHand1			BackHand2			BackHand3	
		X0	Y0	Z0	X1	Y1	Z1	X2	Y2	Z2	X3	Y3	Z3	X4	Y4	Z4	X5	Y5	Z5	X6	Y6	Z6	X7	Y7	Z7	X8	Y8	Z8	X9	Y9	Z9	X10	Y10	Z10	X11	Y11	Z11	X12	Y12	Z12	X13	Y13	Z13	X14	Y14	Z14	X15	Y15	Z15	X16	Y16	Z16	X17	Y17	Z17	X18	Y18	Z18	
109	0.908333	-248.189	-68.6419	1.4945	-248.419	-63.4742	-33.868	-243.167	-68.9822	-61.6435	-236.814	-76.3896	-85.6255	-262.07	-128.777	-42.1878	-264.798	-132.893	-66.46	-262.675	-130.494	-93.292	-243.524	-133.444	-45.2543	-238.596	-121.934	-79.2973	-222.283	-92.1414	-86.3718	-226.345	-143.719	-36.0924	-226.813	-151.363	-63.8211	-222.991	-150.523	-88.1461	-201.694	-142.01	-18.7678	-205.024	-157.629	-37.0304	-200.432	-169.511	-58.1842	-216.809	-119.607	16.502	-212.295	-103.871	40.5953	-246.268	-100.483	24.844	
110	0.916667	-256.839	-58.7561	6.92332	-259.59	-63.3617	-32.9437	-258.342	-73.6731	-59.1528	-253.611	-86.8741	-77.7928	-290.651	-121.973	-26.0744	-294.141	-130.791	-54.5216	-295.407	-130.667	-78.1773	-275.281	-133.922	-33.4655	-268.376	-129.018	-65.8698	-245.214	-98.2089	-77.1562	-259.645	-144.155	-21.5717	-264.166	-155.17	-46.142	-262.563	-158.863	-74.4376	-234.307	-145.458	-7.94814	-240.398	-163.06	-23.3353	-243.789	-174.227	-44.2408	-236.85	-119.029	25.2573	-224.433	-101.694	45.7695	-261.191	-91.0119	32.9977	
111	0.925	-261.371	-52.3983	8.08929	-263.32	-55.1873	-25.9408	-268.982	-66.1561	-54.2547	-269.054	-79.6099	-75.2022	-313.356	-103.056	-17.8125	-321.196	-112.088	-42.7994	-320.544	-114.7	-72.0133	-303.627	-119.495	-24.0796	-296.088	-119.958	-55.0597	-264.439	-99.222	-68.6492	-287.622	-135.584	-12.587	-297.253	-146.471	-35.3517	-298.747	-149.612	-63.2296	-260.951	-141.528	1.60147	-274.828	-158.208	-11.5755	-285.698	-171.679	-35.9848	-262.429	-113.324	28.715	-241.259	-96.8253	48.6156	-269.024	-80.4401	37.24	
112	0.933333	-258.445	-40.8671	8.95419	-264.158	-47.047	-27.7525	-271.375	-56.9158	-53.6287	-275.504	-70.8087	-75.4396	-324.706	-75.5748	-14.4735	-336.79	-80.32	-43.0665	-336.561	-86.4787	-71.1413	-316.579	-99.349	-18.3235	-314.61	-95.8049	-51.9782	-280.26	-87.9995	-66.5951	-311.755	-115.155	-9.06767	-323.614	-122.513	-30.4968	-326.627	-125.121	-58.4571	-291.256	-128.625	3.85488	-305.388	-137.099	-7.26072	-319.639	-147.449	-30.031	-274.371	-101.147	34.0819	-254.678	-91.6039	49.5837	-277.881	-66.7345	38.82	
113	0.941667	-250.515	-32.6703	5.58346	-253.237	-36.2295	-26.6533	-262.907	-43.3612	-56.4179	-272.247	-56.529	-77.1078	-320.569	-44.3733	-16.9218	-334.497	-46.8804	-46.2344	-336.846	-50.6378	-72.831	-322.314	-69.6353	-26.0975	-315.881	-67.3904	-55.1108	-276.077	-74.9711	-68.378	-323.426	-84.1552	-11.2845	-335.116	-86.7868	-32.7814	-340.567	-93.0954	-63.5585	-305.087	-105.33	4.35006	-327.587	-112.373	-9.34352	-342.479	-117.605	-30.1733	-287.126	-79.6003	31.9965	-261.643	-83.817	51.2713	-273.036	-48.5794	37.5989	
114	0.95	-232.467	-29.4444	8.74131	-239.14	-29.2833	-30.2322	-248.829	-32.9072	-58.3165	-257.445	-43.3638	-75.5673	-302.984	-13.0605	-22.5423	-312.888	-11.1316	-51.1054	-318.498	-15.8929	-73.4302	-308.718	-33.6318	-28.7134	-301.145	-42.5154	-62.4847	-272.747	-53.6557	-74.59	-320.255	-53.1438	-16.8414	-329.547	-50.9386	-37.3365	-335.449	-52.9344	-65.6283	-306.649	-75.1099	1.02053	-329.227	-72.8332	-11.4935	-346.302	-76.7658	-31.5225	-282.158	-62.2961	30.0738	-265.94	-70.4885	46.7821	-263.632	-35.8845	36.3101	
115	0.958333	-218.349	-26.882	5.30637	-217.615	-26.735	-27.7195	-226.638	-25.5798	-61.3086	-238.839	-31.8061	-79.061	-274.494	9.49974	-28.1698	-282.591	15.3422	-57.7772	-285.991	16.141	-79.2076	-289.965	-10.9746	-36.0956	-282.201	-21.2787	-68.502	-257.256	-39.9622	-78.9739	-299.592	-22.9631	-21.1761	-312.752	-16.8715	-49.893	-315.469	-17.7548	-75.2844	-304.016	-47.0466	-4.99915	-322.053	-42.2832	-18.4605	-335.879	-33.5005	-39.8513	-276.758	-41.8752	23.5751	-260.352	-53.1679	44.1257	-246.584	-19.5895	29.6489	
116	0.966667	-201.925	-28.1976	4.4613	-202.914	-25.5496	-34.6753	-206.821	-25.7516	-61.8131	-223.632	-28.3413	-82.2006	-247.878	19.3028	-35.0528	-253.364	26.6804	-60.4074	-255.784	30.5043	-87.4302	-266.431	4.58005	-41.9158	-257.901	-4.56485	-75.2686	-242.582	-36.5076	-84.6671	-282.094	-4.65848	-29.0852	-288.979	5.17705	-56.7342	-294.565	4.21596	-82.696	-289.529	-24.016	-12.905	-306.911	-15.8624	-24.3142	-320.345	-5.54995	-44.5369	-263.419	-22.47	18.7073	-256.293	-41.5997	40.5285	-231.056	-13.026	27.6964	
117	0.975	-189.19	-31.7409	-0.747693	-186.461	-31.5404	-39.9122	-193.717	-31.9365	-65.2261	-207.36	-33.3559	-85.9046	-227.511	22.2038	-46.2066	-227.019	29.3447	-72.8745	-231.018	31.0626	-98.2698	-245.986	8.73994	-51.1974	-242.219	-5.17512	-81.0749	-230.718	-38.2457	-89.0748	-261.018	5.80226	-39.4876	-266.896	13.2539	-62.1491	-272.254	12.1712	-93.0201	-276.498	-16.0667	-18.6657	-290.325	-0.193005	-33.4437	-300.035	13.3292	-53.2481	-251.943	-13.6294	9.24028	-241.333	-33.2505	35.1199	-220.948	-10.1329	18.6019	
118	0.983333	-182.614	-38.738	-7.01778	-178.848	-43.7756	-44.2281	-187.06	-45.3126	-70.6216	-195.169	-50.1335	-94.0748	-206.554	14.1728	-57.4843	-207.992	17.7835	-86.0118	-212.221	16.7372	-108.977	-226.767	1.7774	-62.3043	-223.316	-15.5694	-89.9776	-217.693	-54.2552	-89.9591	-249.294	4.05022	-52.372	-253.256	8.62629	-74.6412	-255.983	5.55233	-106.123	-262.527	-12.734	-26.9896	-273.938	2.60315	-40.4028	-280.162	16.46	-62.5217	-240.328	-13.3531	3.73906	-234.332	-29.0163	29.1173	-202.912	-13.3493	11.8297	
119	0.991667	-174.235	-49.2582	-11.2942	-169.573	-60.7406	-46.7536	-178.326	-66.1701	-75.1894	-192.346	-71.5939	-94.3199	-191.743	-4.20356	-66.3517	-194.153	-3.66021	-94.5794	-199.229	-7.81941	-121.439	-217.366	-13.8267	-73.7361	-215.152	-40.3944	-97.1292	-210.108	-77.2304	-85.4232	-234.968	-6.71731	-61.003	-237.087	-5.6655	-87.343	-243.793	-14.2527	-112.755	-249.504	-16.902	-35.1044	-260.224	-2.78488	-51.6151	-263.663	7.31721	-75.5882	-228.846	-14.4508	-7.34227	-225.823	-27.6203	20.9529	-194.845	-18.2553	4.8081	
120	1	-161.266	-61.3779	-9.79689	-163.344	-76.5054	-39.8922	-171.777	-85.8571	-69.3562	-182.73	-92.562	-86.4954	-182.369	-21.465	-75.8162	-184.11	-25.9033	-99.7835	-185.704	-32.0301	-125.207	-205.827	-30.0685	-75.3109	-204.448	-59.2186	-97.2071	-203.039	-90.8404	-80.4768	-219.826	-22.3387	-63.0874	-225.236	-23.8579	-90.7064	-232.738	-37.4351	-119.844	-235.676	-25.2403	-42.3528	-243.574	-12.3164	-61.9084	-251.089	-6.81023	-79.5632	-216.777	-24.0492	-8.90236	-214.374	-32.2063	17.7935	-179.553	-25.7282	-4.97653	
121	1.00833	-149.034	-70.2026	-8.32828	-150.395	-89.5416	-34.7154	-156.974	-100.863	-63.913	-172.349	-109.116	-85.9692	-170.515	-36.7365	-76.3196	-170.887	-42.6863	-101.465	-175.612	-54.7957	-128.138	-191.843	-47.0489	-80.8558	-188.656	-72.6168	-96.1506	-191.479	-105.51	-76.0377	-211.271	-36.5811	-67.0604	-215.809	-41.507	-94.5165	-218.889	-57.3494	-118.687	-225.855	-38.4622	-41.85	-233.73	-26.9808	-62.5727	-239.832	-23.9528	-86.0935	-203.041	-32.0267	-15.4309	-202.702	-37.2475	17.5682	-169.066	-32.7446	-3.48432	
122	1.01667	-142.147	-74.9223	-1.88236	-139.192	-96.8018	-31.0593	-142.907	-114.919	-59.1111	-157.514	-123.915	-76.7227	-157.644	-50.4974	-78.0197	-156.984	-59.4056	-99.8439	-156.898	-72.4553	-122.199	-179.562	-60.1815	-79.1805	-176.367	-90.3005	-92.6246	-172.953	-121.466	-68.2671	-199.573	-51.4722	-70.667	-203.089	-60.1132	-96.2666	-205.578	-77.9991	-115.465	-216.427	-47.7653	-46.8416	-221.749	-42.7127	-65.4357	-224.433	-42.9635	-90.8676	-195.836	-40.1315	-17.8721	-192.923	-39.5325	15.5609	-157.787	-39.819	-4.63016	
123	1.025	-129.643	-77.8967	-1.604	-128.122	-103.643	-27.0921	-133.382	-121.895	-49.6893	-142.248	-137.54	-64.4288	-145.654	-62.0103	-74.147	-148.126	-75.5067	-100.821	-146.337	-93.1223	-121.549	-168.158	-73.0131	-76.9429	-168.04	-104.667	-87.1019	-160.374	-132.633	-62.6046	-187.335	-63.9798	-66.289	-192.45	-77.0002	-93.7426	-191.892	-98.2589	-113.724	-205.817	-62.8984	-43.5031	-212.275	-57.9765	-68.1535	-221.031	-59.8692	-89.5551	-188.228	-47.5499	-13.6967	-184.276	-43.9393	11.851	-155.202	-42.7839	-2.82002	
124	1.03333	-128.407	-75.0205	2.07282	-123.579	-101.915	-18.4066	-119.898	-124.95	-41.5158	-128.766	-140.902	-54.3525	-145.901	-68.3937	-71.0489	-144.054	-82.7048	-93.8267	-140.206	-100.56	-114.346	-161.427	-80.3583	-73.1225	-156.971	-114.566	-81.4818	-147.764	-139.222	-55.6665	-185.838	-75.5365	-64.9158	-184.166	-88.0849	-89.1491	-178.727	-113.253	-109.31	-205.03	-75.6553	-42.492	-209.683	-73.987	-68.6239	-214.816	-78.9087	-92.0272	-184.955	-53.0663	-17.3965	-187.773	-47.5673	14.9039	-154.809	-45.4528	-2.26877	
125	1.04167	-128.443	-65.4333	6.12797	-113.874	-92.1427	-10.2911	-107.457	-114.656	-31.0798	-111.076	-132.949	-46.5746	-142.455	-65.7139	-67.1946	-134.376	-79.626	-90.2206	-128.536	-98.6116	-109.712	-155.645	-85.9757	-72.3195	-143.11	-115.119	-75.9111	-131.878	-136.803	-46.1512	-181.35	-83.9026	-64.4988	-171.468	-98.6394	-89.9854	-165.823	-121.493	-104.847	-199.521	-87.1437	-41.5097	-203.601	-87.1235	-67.2832	-205.714	-96.575	-89.5546	-191.019	-61.2416	-16.0425	-193.067	-53.5041	11.589	-161.34	-43.4804	-2.71031	
126	1.05	-134.209	-50.5345	7.17114	-114.302	-70.803	-7.69657	-96.0318	-91.1403	-30.1737	-93.1308	-110.624	-42.1618	-144.425	-63.1492	-70.3547	-131.841	-73.8146	-88.3627	-119.872	-92.3302	-106.828	-155.369	-83.7648	-66.1877	-127.752	-102.515	-73.6143	-109.088	-116.937	-42.1036	-172.728	-93.7045	-64.9305	-160.265	-104.674	-82.8233	-144.536	-120.839	-96.9688	-192.311	-101.157	-38.2268	-191.853	-102.302	-60.7962	-187.466	-114.991	-85.1636	-193.717	-70.0923	-17.0604	-197.708	-63.6807	16.5662	-175.898	-43.9065	-6.10453	
127	1.05833	-153.085	-31.6327	1.92474	-121.007	-38.6115	-13.1874	-101.873	-53.2539	-31.7948	-85.1868	-70.8629	-47.5177	-155.453	-60.2364	-71.1168	-139.049	-63.0764	-89.2323	-119.99	-74.1688	-107.823	-149.517	-77.5624	-69.2483	-118.042	-84.4361	-70.0127	-97.8997	-83.1982	-36.6822	-163.142	-95.2379	-60.9107	-147.671	-103.803	-78.2623	-122.317	-108.43	-95.7909	-175.329	-110.512	-34.7732	-174.146	-119.19	-56.2363	-164.559	-124.706	-80.0717	-192.986	-79.5219	-10.8085	-200.939	-74.9578	12.7394	-191.109	-50.1486	-9.06214	
